<svg xmlns="http://www.w3.org/2000/svg" width="32" height="32" fill="none" viewBox="0 0 32 32" id="bird">
  <path fill="url(#paint0_linear_1_51)" d="M16.5423 10.9589L17.777 11.782C17.915 11.874 18.1019 11.8078 18.1143 11.6423C18.2036 10.4573 16.9967 8.95134 16.3835 8.49155L16.5423 10.9588V10.9589Z"></path>
  <path fill="url(#paint1_linear_1_51)" d="M16.5423 10.9589L17.777 11.782C17.915 11.874 18.1019 11.8078 18.1143 11.6423C18.2036 10.4573 16.9967 8.95134 16.3835 8.49155L16.5423 10.9588V10.9589Z"></path>
  <path fill="url(#paint2_linear_1_51)" d="M16.5423 10.9589L17.777 11.782C17.915 11.874 18.1019 11.8078 18.1143 11.6423C18.2036 10.4573 16.9967 8.95134 16.3835 8.49155L16.5423 10.9588V10.9589Z"></path>
  <path fill="url(#paint3_linear_1_51)" d="M1.37233 9.7257C1.43587 9.47106 1.78966 9.48854 1.84716 9.74449C2.0216 10.5215 2.17383 10.8483 2.42733 11.3633C2.47454 11.4592 2.62367 11.4256 2.62612 11.3187C2.69537 8.29764 3.47123 5.44477 4.64236 3.8537C4.77646 3.67157 5.04205 3.7735 5.04205 3.99972V6.59892C5.04205 6.71358 5.22907 6.74936 5.27465 6.644C5.89272 5.21675 7.81194 1.65876 11.8503 0.845497C12.1032 0.794536 12.2301 1.11435 12.0277 1.27426C10.4944 2.48639 8.36647 4.68329 8.29983 7.74163C8.19399 12.583 11.482 14.3779 12.9981 15.0221C13.1134 15.0711 13.2307 15.1155 13.3483 15.1587C14.7523 15.6732 15.7543 17.0212 15.7543 18.6036C15.7543 20.6295 14.1121 22.2717 12.0862 22.2717C11.9449 22.2717 11.8056 22.2634 11.6685 22.2479C11.6666 22.2479 11.6646 22.2482 11.663 22.248C6.4925 21.6732 -0.724603 18.1311 1.37217 9.7257H1.37233Z"></path>
  <path fill="url(#paint4_radial_1_51)" d="M1.37233 9.7257C1.43587 9.47106 1.78966 9.48854 1.84716 9.74449C2.0216 10.5215 2.17383 10.8483 2.42733 11.3633C2.47454 11.4592 2.62367 11.4256 2.62612 11.3187C2.69537 8.29764 3.47123 5.44477 4.64236 3.8537C4.77646 3.67157 5.04205 3.7735 5.04205 3.99972V6.59892C5.04205 6.71358 5.22907 6.74936 5.27465 6.644C5.89272 5.21675 7.81194 1.65876 11.8503 0.845497C12.1032 0.794536 12.2301 1.11435 12.0277 1.27426C10.4944 2.48639 8.36647 4.68329 8.29983 7.74163C8.19399 12.583 11.482 14.3779 12.9981 15.0221C13.1134 15.0711 13.2307 15.1155 13.3483 15.1587C14.7523 15.6732 15.7543 17.0212 15.7543 18.6036C15.7543 20.6295 14.1121 22.2717 12.0862 22.2717C11.9449 22.2717 11.8056 22.2634 11.6685 22.2479C11.6666 22.2479 11.6646 22.2482 11.663 22.248C6.4925 21.6732 -0.724603 18.1311 1.37217 9.7257H1.37233Z"></path>
  <path fill="url(#paint5_radial_1_51)" fill-rule="evenodd" d="M26.0142 20.2796C25.9051 19.6378 25.656 19.0281 25.2931 18.4879C24.4868 17.2879 22.8528 14.9208 22.2052 14.4551C21.6237 14.0371 20.8468 14.0031 20.2355 14.3764C17.9482 15.7726 15.5831 15.7726 15.5831 15.7726C14.7545 15.7726 14.2813 14.8265 14.7785 14.1635L16.8725 11.3714C17.5459 10.4734 17.3542 9.19822 16.4465 8.53801L12.5661 5.71585C12.5661 5.71585 12.5661 7.7272 13.5718 8.73287L10.6821 12.2464C9.65033 13.501 9.06476 15.0683 9.04663 16.6927C9.04631 16.7211 9.04614 16.7497 9.04614 16.7783C9.04614 20.9484 12.4305 24.3281 16.6023 24.3207C17.9953 24.3183 19.2976 23.9408 20.4145 23.2842L20.4184 23.2819C20.4584 23.2584 20.4983 23.2344 20.5378 23.21L21.5676 22.5908C21.6286 22.5542 21.6936 22.5242 21.7622 22.5055C22.0278 22.4335 22.3167 22.5065 22.5168 22.7066C22.8288 23.0188 22.8211 23.5303 22.4737 23.8025C20.8516 25.0726 18.8085 25.8296 16.5888 25.8296C14.746 25.8296 13.0251 25.3079 11.5656 24.404C11.3482 24.2694 11.0577 24.4209 11.0577 24.6766C11.0577 24.7245 11.0678 24.7701 11.0905 24.812C11.3277 25.2511 12.8643 27.841 16.086 27.841C16.086 27.841 14.9997 28.2031 14.0561 28.3127C13.878 28.3335 13.8076 28.5394 13.9665 28.6221C15.3187 29.3252 18.3821 29.2071 19.103 28.8465C19.103 28.8465 18.7143 29.6238 17.5064 30.4952C17.3458 30.611 17.418 30.8683 17.6158 30.8618C22.2963 30.7092 26.1426 26.5702 26.1426 21.8069C26.1426 21.2866 26.0986 20.7764 26.0144 20.2801L26.0142 20.2796Z" clip-rule="evenodd"></path>
  <path fill="url(#paint6_radial_1_51)" fill-rule="evenodd" d="M26.0142 20.2796C25.9051 19.6378 25.656 19.0281 25.2931 18.4879C24.4868 17.2879 22.8528 14.9208 22.2052 14.4551C21.6237 14.0371 20.8468 14.0031 20.2355 14.3764C17.9482 15.7726 15.5831 15.7726 15.5831 15.7726C14.7545 15.7726 14.2813 14.8265 14.7785 14.1635L16.8725 11.3714C17.5459 10.4734 17.3542 9.19822 16.4465 8.53801L12.5661 5.71585C12.5661 5.71585 12.5661 7.7272 13.5718 8.73287L10.6821 12.2464C9.65033 13.501 9.06476 15.0683 9.04663 16.6927C9.04631 16.7211 9.04614 16.7497 9.04614 16.7783C9.04614 20.9484 12.4305 24.3281 16.6023 24.3207C17.9953 24.3183 19.2976 23.9408 20.4145 23.2842L20.4184 23.2819C20.4584 23.2584 20.4983 23.2344 20.5378 23.21L21.5676 22.5908C21.6286 22.5542 21.6936 22.5242 21.7622 22.5055C22.0278 22.4335 22.3167 22.5065 22.5168 22.7066C22.8288 23.0188 22.8211 23.5303 22.4737 23.8025C20.8516 25.0726 18.8085 25.8296 16.5888 25.8296C14.746 25.8296 13.0251 25.3079 11.5656 24.404C11.3482 24.2694 11.0577 24.4209 11.0577 24.6766C11.0577 24.7245 11.0678 24.7701 11.0905 24.812C11.3277 25.2511 12.8643 27.841 16.086 27.841C16.086 27.841 14.9997 28.2031 14.0561 28.3127C13.878 28.3335 13.8076 28.5394 13.9665 28.6221C15.3187 29.3252 18.3821 29.2071 19.103 28.8465C19.103 28.8465 18.7143 29.6238 17.5064 30.4952C17.3458 30.611 17.418 30.8683 17.6158 30.8618C22.2963 30.7092 26.1426 26.5702 26.1426 21.8069C26.1426 21.2866 26.0986 20.7764 26.0144 20.2801L26.0142 20.2796Z" clip-rule="evenodd"></path>
  <path fill="url(#paint7_radial_1_51)" fill-rule="evenodd" d="M26.0142 20.2796C25.9051 19.6378 25.656 19.0281 25.2931 18.4879C24.4868 17.2879 22.8528 14.9208 22.2052 14.4551C21.6237 14.0371 20.8468 14.0031 20.2355 14.3764C17.9482 15.7726 15.5831 15.7726 15.5831 15.7726C14.7545 15.7726 14.2813 14.8265 14.7785 14.1635L16.8725 11.3714C17.5459 10.4734 17.3542 9.19822 16.4465 8.53801L12.5661 5.71585C12.5661 5.71585 12.5661 7.7272 13.5718 8.73287L10.6821 12.2464C9.65033 13.501 9.06476 15.0683 9.04663 16.6927C9.04631 16.7211 9.04614 16.7497 9.04614 16.7783C9.04614 20.9484 12.4305 24.3281 16.6023 24.3207C17.9953 24.3183 19.2976 23.9408 20.4145 23.2842L20.4184 23.2819C20.4584 23.2584 20.4983 23.2344 20.5378 23.21L21.5676 22.5908C21.6286 22.5542 21.6936 22.5242 21.7622 22.5055C22.0278 22.4335 22.3167 22.5065 22.5168 22.7066C22.8288 23.0188 22.8211 23.5303 22.4737 23.8025C20.8516 25.0726 18.8085 25.8296 16.5888 25.8296C14.746 25.8296 13.0251 25.3079 11.5656 24.404C11.3482 24.2694 11.0577 24.4209 11.0577 24.6766C11.0577 24.7245 11.0678 24.7701 11.0905 24.812C11.3277 25.2511 12.8643 27.841 16.086 27.841C16.086 27.841 14.9997 28.2031 14.0561 28.3127C13.878 28.3335 13.8076 28.5394 13.9665 28.6221C15.3187 29.3252 18.3821 29.2071 19.103 28.8465C19.103 28.8465 18.7143 29.6238 17.5064 30.4952C17.3458 30.611 17.418 30.8683 17.6158 30.8618C22.2963 30.7092 26.1426 26.5702 26.1426 21.8069C26.1426 21.2866 26.0986 20.7764 26.0144 20.2801L26.0142 20.2796Z" clip-rule="evenodd"></path>
  <path fill="url(#paint8_radial_1_51)" fill-opacity=".7" fill-rule="evenodd" d="M26.0142 20.2796C25.9051 19.6378 25.656 19.0281 25.2931 18.4879C24.4868 17.2879 22.8528 14.9208 22.2052 14.4551C21.6237 14.0371 20.8468 14.0031 20.2355 14.3764C17.9482 15.7726 15.5831 15.7726 15.5831 15.7726C14.7545 15.7726 14.2813 14.8265 14.7785 14.1635L16.8725 11.3714C17.5459 10.4734 17.3542 9.19822 16.4465 8.53801L12.5661 5.71585C12.5661 5.71585 12.5661 7.7272 13.5718 8.73287L10.6821 12.2464C9.65033 13.501 9.06476 15.0683 9.04663 16.6927C9.04631 16.7211 9.04614 16.7497 9.04614 16.7783C9.04614 20.9484 12.4305 24.3281 16.6023 24.3207C17.9953 24.3183 19.2976 23.9408 20.4145 23.2842L20.4184 23.2819C20.4584 23.2584 20.4983 23.2344 20.5378 23.21L21.5676 22.5908C21.6286 22.5542 21.6936 22.5242 21.7622 22.5055C22.0278 22.4335 22.3167 22.5065 22.5168 22.7066C22.8288 23.0188 22.8211 23.5303 22.4737 23.8025C20.8516 25.0726 18.8085 25.8296 16.5888 25.8296C14.746 25.8296 13.0251 25.3079 11.5656 24.404C11.3482 24.2694 11.0577 24.4209 11.0577 24.6766C11.0577 24.7245 11.0678 24.7701 11.0905 24.812C11.3277 25.2511 12.8643 27.841 16.086 27.841C16.086 27.841 14.9997 28.2031 14.0561 28.3127C13.878 28.3335 13.8076 28.5394 13.9665 28.6221C15.3187 29.3252 18.3821 29.2071 19.103 28.8465C19.103 28.8465 18.7143 29.6238 17.5064 30.4952C17.3458 30.611 17.418 30.8683 17.6158 30.8618C22.2963 30.7092 26.1426 26.5702 26.1426 21.8069C26.1426 21.2866 26.0986 20.7764 26.0144 20.2801L26.0142 20.2796Z" clip-rule="evenodd"></path>
  <path fill="url(#paint9_radial_1_51)" fill-opacity=".7" fill-rule="evenodd" d="M26.0142 20.2796C25.9051 19.6378 25.656 19.0281 25.2931 18.4879C24.4868 17.2879 22.8528 14.9208 22.2052 14.4551C21.6237 14.0371 20.8468 14.0031 20.2355 14.3764C17.9482 15.7726 15.5831 15.7726 15.5831 15.7726C14.7545 15.7726 14.2813 14.8265 14.7785 14.1635L16.8725 11.3714C17.5459 10.4734 17.3542 9.19822 16.4465 8.53801L12.5661 5.71585C12.5661 5.71585 12.5661 7.7272 13.5718 8.73287L10.6821 12.2464C9.65033 13.501 9.06476 15.0683 9.04663 16.6927C9.04631 16.7211 9.04614 16.7497 9.04614 16.7783C9.04614 20.9484 12.4305 24.3281 16.6023 24.3207C17.9953 24.3183 19.2976 23.9408 20.4145 23.2842L20.4184 23.2819C20.4584 23.2584 20.4983 23.2344 20.5378 23.21L21.5676 22.5908C21.6286 22.5542 21.6936 22.5242 21.7622 22.5055C22.0278 22.4335 22.3167 22.5065 22.5168 22.7066C22.8288 23.0188 22.8211 23.5303 22.4737 23.8025C20.8516 25.0726 18.8085 25.8296 16.5888 25.8296C14.746 25.8296 13.0251 25.3079 11.5656 24.404C11.3482 24.2694 11.0577 24.4209 11.0577 24.6766C11.0577 24.7245 11.0678 24.7701 11.0905 24.812C11.3277 25.2511 12.8643 27.841 16.086 27.841C16.086 27.841 14.9997 28.2031 14.0561 28.3127C13.878 28.3335 13.8076 28.5394 13.9665 28.6221C15.3187 29.3252 18.3821 29.2071 19.103 28.8465C19.103 28.8465 18.7143 29.6238 17.5064 30.4952C17.3458 30.611 17.418 30.8683 17.6158 30.8618C22.2963 30.7092 26.1426 26.5702 26.1426 21.8069C26.1426 21.2866 26.0986 20.7764 26.0144 20.2801L26.0142 20.2796Z" clip-rule="evenodd"></path>
  <path fill="url(#paint10_radial_1_51)" fill-opacity=".3" fill-rule="evenodd" d="M26.0142 20.2796C25.9051 19.6378 25.656 19.0281 25.2931 18.4879C24.4868 17.2879 22.8528 14.9208 22.2052 14.4551C21.6237 14.0371 20.8468 14.0031 20.2355 14.3764C17.9482 15.7726 15.5831 15.7726 15.5831 15.7726C14.7545 15.7726 14.2813 14.8265 14.7785 14.1635L16.8725 11.3714C17.5459 10.4734 17.3542 9.19822 16.4465 8.53801L12.5661 5.71585C12.5661 5.71585 12.5661 7.7272 13.5718 8.73287L10.6821 12.2464C9.65033 13.501 9.06476 15.0683 9.04663 16.6927C9.04631 16.7211 9.04614 16.7497 9.04614 16.7783C9.04614 20.9484 12.4305 24.3281 16.6023 24.3207C17.9953 24.3183 19.2976 23.9408 20.4145 23.2842L20.4184 23.2819C20.4584 23.2584 20.4983 23.2344 20.5378 23.21L21.5676 22.5908C21.6286 22.5542 21.6936 22.5242 21.7622 22.5055C22.0278 22.4335 22.3167 22.5065 22.5168 22.7066C22.8288 23.0188 22.8211 23.5303 22.4737 23.8025C20.8516 25.0726 18.8085 25.8296 16.5888 25.8296C14.746 25.8296 13.0251 25.3079 11.5656 24.404C11.3482 24.2694 11.0577 24.4209 11.0577 24.6766C11.0577 24.7245 11.0678 24.7701 11.0905 24.812C11.3277 25.2511 12.8643 27.841 16.086 27.841C16.086 27.841 14.9997 28.2031 14.0561 28.3127C13.878 28.3335 13.8076 28.5394 13.9665 28.6221C15.3187 29.3252 18.3821 29.2071 19.103 28.8465C19.103 28.8465 18.7143 29.6238 17.5064 30.4952C17.3458 30.611 17.418 30.8683 17.6158 30.8618C22.2963 30.7092 26.1426 26.5702 26.1426 21.8069C26.1426 21.2866 26.0986 20.7764 26.0144 20.2801L26.0142 20.2796Z" clip-rule="evenodd"></path>
  <path fill="url(#paint11_radial_1_51)" fill-opacity=".2" fill-rule="evenodd" d="M26.0142 20.2796C25.9051 19.6378 25.656 19.0281 25.2931 18.4879C24.4868 17.2879 22.8528 14.9208 22.2052 14.4551C21.6237 14.0371 20.8468 14.0031 20.2355 14.3764C17.9482 15.7726 15.5831 15.7726 15.5831 15.7726C14.7545 15.7726 14.2813 14.8265 14.7785 14.1635L16.8725 11.3714C17.5459 10.4734 17.3542 9.19822 16.4465 8.53801L12.5661 5.71585C12.5661 5.71585 12.5661 7.7272 13.5718 8.73287L10.6821 12.2464C9.65033 13.501 9.06476 15.0683 9.04663 16.6927C9.04631 16.7211 9.04614 16.7497 9.04614 16.7783C9.04614 20.9484 12.4305 24.3281 16.6023 24.3207C17.9953 24.3183 19.2976 23.9408 20.4145 23.2842L20.4184 23.2819C20.4584 23.2584 20.4983 23.2344 20.5378 23.21L21.5676 22.5908C21.6286 22.5542 21.6936 22.5242 21.7622 22.5055C22.0278 22.4335 22.3167 22.5065 22.5168 22.7066C22.8288 23.0188 22.8211 23.5303 22.4737 23.8025C20.8516 25.0726 18.8085 25.8296 16.5888 25.8296C14.746 25.8296 13.0251 25.3079 11.5656 24.404C11.3482 24.2694 11.0577 24.4209 11.0577 24.6766C11.0577 24.7245 11.0678 24.7701 11.0905 24.812C11.3277 25.2511 12.8643 27.841 16.086 27.841C16.086 27.841 14.9997 28.2031 14.0561 28.3127C13.878 28.3335 13.8076 28.5394 13.9665 28.6221C15.3187 29.3252 18.3821 29.2071 19.103 28.8465C19.103 28.8465 18.7143 29.6238 17.5064 30.4952C17.3458 30.611 17.418 30.8683 17.6158 30.8618C22.2963 30.7092 26.1426 26.5702 26.1426 21.8069C26.1426 21.2866 26.0986 20.7764 26.0144 20.2801L26.0142 20.2796Z" clip-rule="evenodd"></path>
  <path fill="url(#paint12_radial_1_51)" d="M15.5828 10.7438C15.8605 10.7438 16.0856 10.5187 16.0856 10.241C16.0856 9.96334 15.8605 9.73825 15.5828 9.73825C15.3052 9.73825 15.0801 9.96334 15.0801 10.241C15.0801 10.5187 15.3052 10.7438 15.5828 10.7438Z"></path>
  <path fill="url(#paint13_radial_1_51)" d="M15.5828 10.7438C15.8605 10.7438 16.0856 10.5187 16.0856 10.241C16.0856 9.96334 15.8605 9.73825 15.5828 9.73825C15.3052 9.73825 15.0801 9.96334 15.0801 10.241C15.0801 10.5187 15.3052 10.7438 15.5828 10.7438Z"></path>
  <path fill="url(#paint14_radial_1_51)" d="M30.6278 9.72577C30.5642 9.47112 30.2104 9.4886 30.153 9.74455C29.9785 10.5215 29.8263 10.8484 29.5728 11.3634C29.5256 11.4593 29.3764 11.4256 29.374 11.3188C29.3047 8.2977 28.5289 5.44483 27.3577 3.85376C27.2236 3.67164 26.9581 3.77356 26.9581 3.99978V6.59898C26.9581 6.71365 26.771 6.74942 26.7255 6.64406C26.1074 5.21681 24.1882 1.65882 20.1498 0.845558C19.8969 0.794597 19.77 1.11441 19.9724 1.27432C21.5057 2.48645 23.6336 4.68335 23.7003 7.7417C23.8061 12.583 20.5181 14.378 19.002 15.0222C18.8867 15.0712 18.7694 15.1156 18.6518 15.1587C17.2478 15.6732 16.2458 17.0213 16.2458 18.6037C16.2458 20.6296 17.8881 22.2718 19.9139 22.2718C20.0552 22.2718 20.1946 22.2634 20.3316 22.2479C20.3336 22.2479 20.3355 22.2483 20.3371 22.2481C25.5076 21.6733 32.7247 18.1311 30.6279 9.72577H30.6278Z"></path>
  <path fill="url(#paint15_radial_1_51)" d="M2.99752 15.7149C3.16395 16.6064 3.53348 18.0937 4.29012 19.3512C1.80505 17.3487 0.246568 14.2379 1.37217 9.7257C1.43571 9.47106 1.78966 9.48854 1.84716 9.74449C2.0216 10.5215 2.17383 10.8483 2.42733 11.3633C2.47454 11.4592 2.62367 11.4256 2.62612 11.3187C2.69537 8.29764 3.47123 5.44477 4.64236 3.8537C4.77646 3.67157 5.04205 3.7735 5.04205 3.99972V6.59892C5.04205 6.71358 5.22908 6.74936 5.27465 6.644C5.89272 5.21675 7.81194 1.65876 11.8503 0.845497C12.1032 0.794536 12.2301 1.11435 12.0277 1.27426C11.0954 2.01127 9.9433 3.11236 9.16835 4.54979C7.53605 6.95509 6.48506 10.6679 6.40522 12.9034C6.39965 13.0592 6.22912 13.1544 6.10026 13.0666C5.43811 12.6152 5.05746 12.1313 4.84801 11.7839C4.79074 11.6889 4.58492 11.7238 4.57805 11.8345C4.51912 12.7834 4.44246 14.7761 4.72649 16.0453C4.76738 16.228 4.5759 16.3783 4.42686 16.265C4.1171 16.0294 3.76185 15.7241 3.46964 15.464C3.2622 15.2795 2.94656 15.442 2.99752 15.7149Z"></path>
  <path fill="url(#paint16_radial_1_51)" d="M29.0025 15.7149C28.8361 16.6064 28.4665 18.0937 27.7099 19.3512C30.195 17.3487 31.7534 14.2379 30.6278 9.7257C30.5643 9.47106 30.2103 9.48854 30.1528 9.74449C29.9784 10.5215 29.8262 10.8483 29.5727 11.3633C29.5255 11.4592 29.3763 11.4256 29.3739 11.3187C29.3046 8.29764 28.5288 5.44477 27.3576 3.8537C27.2235 3.67157 26.9579 3.7735 26.9579 3.99972V6.59892C26.9579 6.71358 26.7709 6.74936 26.7254 6.644C26.1073 5.21675 24.1881 1.65876 20.1497 0.845497C19.8968 0.794536 19.7699 1.11435 19.9723 1.27426C20.9046 2.01127 22.0567 3.11236 22.8317 4.54979C24.464 6.95509 25.5149 10.6679 25.5948 12.9034C25.6003 13.0592 25.7709 13.1544 25.8997 13.0666C26.5619 12.6152 26.9425 12.1313 27.152 11.7839C27.2093 11.6889 27.4151 11.7238 27.422 11.8345C27.4809 12.7834 27.5575 14.7761 27.2735 16.0453C27.2326 16.228 27.4241 16.3783 27.5731 16.265C27.8829 16.0294 28.2381 15.7241 28.5304 15.464C28.7378 15.2795 29.0534 15.442 29.0025 15.7149Z"></path>
  <path fill="url(#paint17_radial_1_51)" fill-rule="evenodd" d="M14.1543 23.9192C12.3761 22.8446 10.9333 20.7556 11.3533 18.2984C11.3686 18.2092 11.4857 18.1883 11.5345 18.2644C11.7627 18.6204 12.2211 19.2917 12.3954 19.2272C12.4578 19.2042 12.4486 19.0489 12.4317 18.7656C12.3933 18.1187 12.3153 16.804 12.9592 14.8713C13.2254 14.0724 12.9625 13.1689 12.2455 12.7272C11.5336 12.2886 10.6286 12.4496 10.1048 13.0553C9.43408 14.1461 9.06105 15.4013 9.04663 16.6927C9.04631 16.7211 9.04614 16.7497 9.04614 16.7783C9.04614 20.0921 11.1832 22.9067 14.1543 23.9192Z" clip-rule="evenodd"></path>
  <path fill="url(#paint18_radial_1_51)" fill-rule="evenodd" d="M24.636 26.7907C23.6492 27.5608 22.085 28.4866 20.3988 28.9099C20.2374 28.9505 20.1084 28.7831 20.1828 28.6342L20.7942 27.4114C20.8724 27.2551 20.7256 27.0805 20.5576 27.1289C19.2896 27.4935 18.3706 27.7157 17.7846 27.8443C17.5812 27.8889 17.4741 27.6444 17.6407 27.5194L18.5752 26.8185C18.6637 26.7522 18.5898 26.5882 18.4805 26.6053C17.9097 26.6946 16.9476 26.7698 16 26.5C15.3725 26.3213 14.8957 26.0311 14.5136 25.6037C13.4541 25.369 12.4607 24.9584 11.5656 24.404C11.3482 24.2694 11.0576 24.4209 11.0576 24.6766C11.0576 24.7245 11.0677 24.7701 11.0904 24.8121C11.3276 25.2511 12.8643 27.841 16.086 27.841C16.086 27.841 14.9996 28.2031 14.056 28.3127C13.878 28.3335 13.8076 28.5394 13.9665 28.6221C15.3186 29.3252 18.382 29.2072 19.103 28.8465C19.103 28.8465 18.7143 29.6238 17.5064 30.4952C17.3458 30.611 17.418 30.8683 17.6158 30.8618C20.5142 30.7673 23.0927 29.1442 24.636 26.7907Z" clip-rule="evenodd"></path>
  <defs>
    <radialGradient id="paint4_radial_1_51" cx="0" cy="0" r="1" gradientTransform="matrix(1.32141 7.18624 -4.8728 .89602 11.332 17.596)" gradientUnits="userSpaceOnUse">
      <stop offset=".514" stop-color="#BE1A22"></stop>
      <stop offset="1" stop-color="#E53550" stop-opacity="0"></stop>
    </radialGradient>
    <radialGradient id="paint5_radial_1_51" cx="0" cy="0" r="1" gradientTransform="matrix(-14.99996 13.87505 -8.98464 -9.71306 20.375 13.313)" gradientUnits="userSpaceOnUse">
      <stop offset=".474" stop-color="#FF7628"></stop>
      <stop offset=".56" stop-color="#F2523C"></stop>
      <stop offset=".646" stop-color="#C42530"></stop>
      <stop offset=".739" stop-color="#CA3842"></stop>
      <stop offset=".835" stop-color="#F63A61"></stop>
    </radialGradient>
    <radialGradient id="paint6_radial_1_51" cx="0" cy="0" r="1" gradientTransform="rotate(-163.465 15.514 9.042)scale(8.3451 5.67372)" gradientUnits="userSpaceOnUse">
      <stop offset=".369" stop-color="#FF6723"></stop>
      <stop offset=".909" stop-color="#F63A61" stop-opacity="0"></stop>
    </radialGradient>
    <radialGradient id="paint7_radial_1_51" cx="0" cy="0" r="1" gradientTransform="matrix(1.75 3.125 -2.12465 1.1898 14.563 7)" gradientUnits="userSpaceOnUse">
      <stop offset=".369" stop-color="#FF6723"></stop>
      <stop offset="1" stop-color="#FF772A" stop-opacity="0"></stop>
    </radialGradient>
    <radialGradient id="paint8_radial_1_51" cx="0" cy="0" r="1" gradientTransform="rotate(147.858 7.462 9.46)scale(16.6818 6.7172)" gradientUnits="userSpaceOnUse">
      <stop offset=".281" stop-color="#DE3E0D"></stop>
      <stop offset=".423" stop-color="#FF6745" stop-opacity="0"></stop>
    </radialGradient>
    <radialGradient id="paint9_radial_1_51" cx="0" cy="0" r="1" gradientTransform="rotate(163.892 9.206 10.63)scale(14.0517 11.275)" gradientUnits="userSpaceOnUse">
      <stop offset=".347" stop-color="#DE3E0D"></stop>
      <stop offset=".443" stop-color="#FF6745" stop-opacity="0"></stop>
    </radialGradient>
    <radialGradient id="paint10_radial_1_51" cx="0" cy="0" r="1" gradientTransform="matrix(.03125 2.15625 -2.40439 .03485 16.281 10.031)" gradientUnits="userSpaceOnUse">
      <stop offset=".14" stop-color="#fff"></stop>
      <stop offset=".845" stop-color="#fff" stop-opacity="0"></stop>
    </radialGradient>
    <radialGradient id="paint11_radial_1_51" cx="0" cy="0" r="1" gradientTransform="matrix(3 -1.5 1.67262 3.34523 12.688 15.375)" gradientUnits="userSpaceOnUse">
      <stop offset=".14" stop-color="#fff"></stop>
      <stop offset=".845" stop-color="#fff" stop-opacity="0"></stop>
    </radialGradient>
    <radialGradient id="paint12_radial_1_51" cx="0" cy="0" r="1" gradientTransform="rotate(109.09 4.567 10.733)scale(.6738)" gradientUnits="userSpaceOnUse">
      <stop stop-color="#8A6F99"></stop>
      <stop offset="1" stop-color="#532C46"></stop>
    </radialGradient>
    <radialGradient id="paint13_radial_1_51" cx="0" cy="0" r="1" gradientTransform="rotate(112.736 4.55 10.311)scale(.93205)" gradientUnits="userSpaceOnUse">
      <stop offset=".017" stop-color="#695C5F"></stop>
      <stop offset=".832" stop-color="#4E252D"></stop>
    </radialGradient>
    <radialGradient id="paint14_radial_1_51" cx="0" cy="0" r="1" gradientTransform="rotate(138.077 10.666 11.54)scale(12.348 7.22362)" gradientUnits="userSpaceOnUse">
      <stop offset=".153" stop-color="#FB4B5C"></stop>
      <stop offset=".574" stop-color="#EF4152"></stop>
      <stop offset=".811" stop-color="#D93142"></stop>
      <stop offset="1" stop-color="#B80013"></stop>
    </radialGradient>
    <radialGradient id="paint15_radial_1_51" cx="0" cy="0" r="1" gradientTransform="rotate(-160.919 5.886 3.477)scale(10.5152 20.9913)" gradientUnits="userSpaceOnUse">
      <stop offset=".267" stop-color="#FFC14A"></stop>
      <stop offset=".651" stop-color="#FFAD36"></stop>
      <stop offset=".827" stop-color="#E09624"></stop>
    </radialGradient>
    <radialGradient id="paint16_radial_1_51" cx="0" cy="0" r="1" gradientTransform="matrix(-3.93602 2.37502 -5.56398 -9.22097 25.436 9.75)" gradientUnits="userSpaceOnUse">
      <stop offset=".595" stop-color="#FFAD36"></stop>
      <stop offset=".858" stop-color="#FFC14A"></stop>
    </radialGradient>
    <radialGradient id="paint17_radial_1_51" cx="0" cy="0" r="1" gradientTransform="matrix(0 7.35669 -4.12786 0 12.875 16.563)" gradientUnits="userSpaceOnUse">
      <stop offset=".018" stop-color="#FFB240"></stop>
      <stop offset=".45" stop-color="#FFB137"></stop>
      <stop offset=".697" stop-color="#EE9D28"></stop>
      <stop offset=".875" stop-color="#D98616"></stop>
    </radialGradient>
    <radialGradient id="paint18_radial_1_51" cx="0" cy="0" r="1" gradientTransform="scale(13.2218 11.2994)rotate(90 -.19 1.54)" gradientUnits="userSpaceOnUse">
      <stop offset=".608" stop-color="#F6962C"></stop>
      <stop offset=".702" stop-color="#FFB82E"></stop>
      <stop offset=".87" stop-color="#FFB82E"></stop>
      <stop offset=".99" stop-color="#F6962C"></stop>
    </radialGradient>
    <linearGradient id="paint0_linear_1_51" x1="18.615" x2="17.251" y1="11.095" y2="11.824" gradientUnits="userSpaceOnUse">
      <stop stop-color="#FFB02E"></stop>
      <stop offset=".404" stop-color="#FFC27A"></stop>
      <stop offset=".48" stop-color="#FFC27A"></stop>
      <stop offset=".763" stop-color="#FC7931"></stop>
      <stop offset="1" stop-color="#E56447"></stop>
    </linearGradient>
    <linearGradient id="paint1_linear_1_51" x1="17.147" x2="17.645" y1="11.824" y2="11.118" gradientUnits="userSpaceOnUse">
      <stop offset=".333" stop-color="#E56447"></stop>
      <stop offset=".754" stop-color="#E56447" stop-opacity="0"></stop>
    </linearGradient>
    <linearGradient id="paint2_linear_1_51" x1="17.181" x2="17.645" y1="11.824" y2="11.118" gradientUnits="userSpaceOnUse">
      <stop offset=".439" stop-color="#DC568E"></stop>
      <stop offset=".595" stop-color="#E56447" stop-opacity="0"></stop>
    </linearGradient>
    <linearGradient id="paint3_linear_1_51" x1="8.377" x2="8.377" y1="4.111" y2="22.272" gradientUnits="userSpaceOnUse">
      <stop stop-color="#FD3A47"></stop>
      <stop offset="1" stop-color="#D83152"></stop>
    </linearGradient>
  </defs>
</svg>
